<svg viewBox="0 0 900 700" xmlns="http://www.w3.org/2000/svg" font-family="'Noto Sans TC','Microsoft JhengHei',sans-serif">
  <defs><radialGradient id="rball" cx="35%" cy="30%" r="70%"><stop offset="0" stop-color="#fff6dc"/><stop offset="1" stop-color="#c9a24a"/></radialGradient><marker id="rarr" markerWidth="6" markerHeight="6" refX="3" refY="3" orient="auto"><path d="M0 0 L6 3 L0 6 Z" fill="#ff6b5c"/></marker><linearGradient id="rg_sub_t" x1="0" y1="0" x2="1" y2="1"><stop offset="0" stop-color="#388053"/><stop offset="1" stop-color="#2b623f"/></linearGradient><linearGradient id="rg_sub_l" x1="0" y1="0" x2="0" y2="1"><stop offset="0" stop-color="#235034"/><stop offset="1" stop-color="#1a3b26"/></linearGradient><linearGradient id="rg_sub_r" x1="0" y1="0" x2="0" y2="1"><stop offset="0" stop-color="#2d6642"/><stop offset="1" stop-color="#214b30"/></linearGradient><linearGradient id="rg_sub_w" x1="0" y1="0" x2="0" y2="1"><stop offset="0" stop-color="#1c4029"/><stop offset="1" stop-color="#142d1d"/></linearGradient><linearGradient id="rg_pic_t" x1="0" y1="0" x2="1" y2="1"><stop offset="0" stop-color="#607b9f"/><stop offset="0.45" stop-color="#4e6480"/><stop offset="1" stop-color="#43566e"/></linearGradient><linearGradient id="rg_pic_l" x1="0" y1="0" x2="0" y2="1"><stop offset="0" stop-color="#3a4a5f"/><stop offset="1" stop-color="#26313f"/></linearGradient><linearGradient id="rg_pic_r" x1="0" y1="0" x2="0" y2="1"><stop offset="0" stop-color="#4a5f7a"/><stop offset="1" stop-color="#324153"/></linearGradient><linearGradient id="rg_pic_w" x1="0" y1="0" x2="0" y2="1"><stop offset="0" stop-color="#2e3b4c"/><stop offset="1" stop-color="#1f2833"/></linearGradient><linearGradient id="rg_eic_t" x1="0" y1="0" x2="1" y2="1"><stop offset="0" stop-color="#4b5a70"/><stop offset="0.45" stop-color="#3d485a"/><stop offset="1" stop-color="#343e4d"/></linearGradient><linearGradient id="rg_eic_l" x1="0" y1="0" x2="0" y2="1"><stop offset="0" stop-color="#2d3643"/><stop offset="1" stop-color="#1e242d"/></linearGradient><linearGradient id="rg_eic_r" x1="0" y1="0" x2="0" y2="1"><stop offset="0" stop-color="#3a4556"/><stop offset="1" stop-color="#272f3a"/></linearGradient><linearGradient id="rg_eic_w" x1="0" y1="0" x2="0" y2="1"><stop offset="0" stop-color="#242b35"/><stop offset="1" stop-color="#181d24"/></linearGradient><linearGradient id="rg_car_t" x1="0" y1="0" x2="1" y2="1"><stop offset="0" stop-color="#ffffff"/><stop offset="0.45" stop-color="#cfd4dc"/><stop offset="1" stop-color="#acb4c2"/></linearGradient><linearGradient id="rg_car_l" x1="0" y1="0" x2="0" y2="1"><stop offset="0" stop-color="#8f9bad"/><stop offset="1" stop-color="#59667a"/></linearGradient><linearGradient id="rg_car_r" x1="0" y1="0" x2="0" y2="1"><stop offset="0" stop-color="#c3c9d3"/><stop offset="1" stop-color="#78869c"/></linearGradient><linearGradient id="rg_car_w" x1="0" y1="0" x2="0" y2="1"><stop offset="0" stop-color="#6a7991"/><stop offset="1" stop-color="#485262"/></linearGradient><linearGradient id="rg_rec_t" x1="0" y1="0" x2="1" y2="1"><stop offset="0" stop-color="#d9dde0"/><stop offset="0.35" stop-color="#919ba6"/><stop offset="0.5" stop-color="#c7ccd2"/><stop offset="0.75" stop-color="#88939e"/><stop offset="1" stop-color="#acb3bc"/></linearGradient><linearGradient id="rg_rec_l" x1="0" y1="0" x2="0" y2="1"><stop offset="0" stop-color="#768290"/><stop offset="0.5" stop-color="#515963"/><stop offset="1" stop-color="#67727e"/></linearGradient><linearGradient id="rg_rec_r" x1="0" y1="0" x2="0" y2="1"><stop offset="0" stop-color="#9aa3ad"/><stop offset="0.5" stop-color="#6e7a87"/><stop offset="1" stop-color="#88939e"/></linearGradient><linearGradient id="rg_rec_w" x1="0" y1="0" x2="0" y2="1"><stop offset="0" stop-color="#58626c"/><stop offset="1" stop-color="#3b4148"/></linearGradient><linearGradient id="rg_cpl_t" x1="0" y1="0" x2="1" y2="1"><stop offset="0" stop-color="#474a53"/><stop offset="1" stop-color="#36393f"/></linearGradient><linearGradient id="rg_cpl_l" x1="0" y1="0" x2="0" y2="1"><stop offset="0" stop-color="#2c2e34"/><stop offset="1" stop-color="#202226"/></linearGradient><linearGradient id="rg_cpl_r" x1="0" y1="0" x2="0" y2="1"><stop offset="0" stop-color="#383b42"/><stop offset="1" stop-color="#292b30"/></linearGradient><linearGradient id="rg_cpl_w" x1="0" y1="0" x2="0" y2="1"><stop offset="0" stop-color="#232529"/><stop offset="1" stop-color="#191a1d"/></linearGradient><linearGradient id="rg_pmla_t" x1="0" y1="0" x2="1" y2="1"><stop offset="0" stop-color="#ffffff"/><stop offset="0.5" stop-color="#d7edf7"/><stop offset="1" stop-color="#b0ddf0"/></linearGradient><linearGradient id="rg_pmla_l" x1="0" y1="0" x2="0" y2="1"><stop offset="0" stop-color="#bce2f2"/><stop offset="1" stop-color="#7bc5e6"/></linearGradient><linearGradient id="rg_pmla_r" x1="0" y1="0" x2="0" y2="1"><stop offset="0" stop-color="#e2f2fa"/><stop offset="1" stop-color="#96d1eb"/></linearGradient><linearGradient id="rg_pmla_w" x1="0" y1="0" x2="0" y2="1"><stop offset="0" stop-color="#83c9e8"/><stop offset="1" stop-color="#36a7d9"/></linearGradient><linearGradient id="rg_fa_t" x1="0" y1="0" x2="1" y2="1"><stop offset="0" stop-color="#ffffff"/><stop offset="0.5" stop-color="#ecf5fb"/><stop offset="1" stop-color="#c5e1f2"/></linearGradient><linearGradient id="rg_fa_l" x1="0" y1="0" x2="0" y2="1"><stop offset="0" stop-color="#d0e7f5"/><stop offset="1" stop-color="#8ec4e6"/></linearGradient><linearGradient id="rg_fa_r" x1="0" y1="0" x2="0" y2="1"><stop offset="0" stop-color="#f8fbfd"/><stop offset="1" stop-color="#a9d3ec"/></linearGradient><linearGradient id="rg_fa_w" x1="0" y1="0" x2="0" y2="1"><stop offset="0" stop-color="#96c9e8"/><stop offset="1" stop-color="#48a0d6"/></linearGradient><linearGradient id="rg_lid_t" x1="0" y1="0" x2="1" y2="1"><stop offset="0" stop-color="#ffffff"/><stop offset="0.5" stop-color="#e3eff7"/><stop offset="1" stop-color="#bfdaed"/></linearGradient><linearGradient id="rg_lid_l" x1="0" y1="0" x2="0" y2="1"><stop offset="0" stop-color="#cae1f0"/><stop offset="1" stop-color="#8cbede"/></linearGradient><linearGradient id="rg_lid_r" x1="0" y1="0" x2="0" y2="1"><stop offset="0" stop-color="#eef5fa"/><stop offset="1" stop-color="#a6cce6"/></linearGradient><linearGradient id="rg_lid_w" x1="0" y1="0" x2="0" y2="1"><stop offset="0" stop-color="#94c2e0"/><stop offset="1" stop-color="#4b98cc"/></linearGradient><linearGradient id="rg_mt_t" x1="0" y1="0" x2="1" y2="1"><stop offset="0" stop-color="#ffffff"/><stop offset="1" stop-color="#e0d6c0"/></linearGradient><linearGradient id="rg_mt_l" x1="0" y1="0" x2="0" y2="1"><stop offset="0" stop-color="#c7b58c"/><stop offset="1" stop-color="#a78d51"/></linearGradient><linearGradient id="rg_mt_r" x1="0" y1="0" x2="0" y2="1"><stop offset="0" stop-color="#e5dcc9"/><stop offset="1" stop-color="#c0ac7d"/></linearGradient><linearGradient id="rg_mt_w" x1="0" y1="0" x2="0" y2="1"><stop offset="0" stop-color="#b1985e"/><stop offset="1" stop-color="#806c3e"/></linearGradient><linearGradient id="rg_boot_t" x1="0" y1="0" x2="1" y2="1"><stop offset="0" stop-color="#464c55"/><stop offset="1" stop-color="#353a41"/></linearGradient><linearGradient id="rg_boot_l" x1="0" y1="0" x2="0" y2="1"><stop offset="0" stop-color="#2c2f35"/><stop offset="1" stop-color="#202327"/></linearGradient><linearGradient id="rg_boot_r" x1="0" y1="0" x2="0" y2="1"><stop offset="0" stop-color="#373c43"/><stop offset="1" stop-color="#292c32"/></linearGradient><linearGradient id="rg_boot_w" x1="0" y1="0" x2="0" y2="1"><stop offset="0" stop-color="#23262b"/><stop offset="1" stop-color="#181a1e"/></linearGradient><linearGradient id="rg_rib_t" x1="0" y1="0" x2="1" y2="1"><stop offset="0" stop-color="#ead37e"/><stop offset="1" stop-color="#dfbb35"/></linearGradient><linearGradient id="rg_rib_l" x1="0" y1="0" x2="0" y2="1"><stop offset="0" stop-color="#c2a01f"/><stop offset="1" stop-color="#8e7517"/></linearGradient><linearGradient id="rg_rib_r" x1="0" y1="0" x2="0" y2="1"><stop offset="0" stop-color="#e0be3d"/><stop offset="1" stop-color="#b5951d"/></linearGradient><linearGradient id="rg_rib_w" x1="0" y1="0" x2="0" y2="1"><stop offset="0" stop-color="#9b8019"/><stop offset="1" stop-color="#6d5911"/></linearGradient><linearGradient id="rbg" x1="0" y1="0" x2="1" y2="1"><stop offset="0" stop-color="#0c1322"/><stop offset=".55" stop-color="#121d31"/><stop offset="1" stop-color="#0a1a1f"/></linearGradient><pattern id="rgrid" width="46" height="46" patternUnits="userSpaceOnUse"><path d="M46 0 H0 V46" fill="none" stroke="#7fb6ff" stroke-opacity=".07" stroke-width="1"/></pattern><radialGradient id="rglow" cx="50%" cy="50%" r="50%"><stop offset="0" stop-color="#2d7bd1" stop-opacity=".35"/><stop offset="1" stop-color="#2d7bd1" stop-opacity="0"/></radialGradient><linearGradient id="rmirror" x1="0" y1="0" x2="1" y2="1"><stop offset="0" stop-color="#f7ecd2"/><stop offset=".45" stop-color="#ffffff"/><stop offset=".6" stop-color="#e9c96e"/><stop offset="1" stop-color="#a97a2a"/></linearGradient><linearGradient id="rcopper" x1="0" y1="0" x2="1" y2="1"><stop offset="0" stop-color="#f0b27a"/><stop offset=".5" stop-color="#c9793f"/><stop offset="1" stop-color="#8c4f24"/></linearGradient><radialGradient id="rgold" cx="35%" cy="30%" r="70%"><stop offset="0" stop-color="#fff3c4"/><stop offset="1" stop-color="#b8892a"/></radialGradient><radialGradient id="rlens" cx="40%" cy="35%" r="65%"><stop offset="0" stop-color="#ffffff"/><stop offset=".6" stop-color="#f3e3b4"/><stop offset="1" stop-color="#c9a24a"/></radialGradient><filter id="rblur4" x="-30%" y="-30%" width="160%" height="160%"><feGaussianBlur stdDeviation="4"/></filter><filter id="rblur6" x="-30%" y="-30%" width="160%" height="160%"><feGaussianBlur stdDeviation="6"/></filter><filter id="rblur8" x="-30%" y="-30%" width="160%" height="160%"><feGaussianBlur stdDeviation="8"/></filter><filter id="rblur12" x="-30%" y="-30%" width="160%" height="160%"><feGaussianBlur stdDeviation="12"/></filter></defs>
  <rect x="0" y="0" width="900" height="700" fill="url(#rbg)"/><rect x="0" y="0" width="900" height="700" fill="url(#rgrid)"/><ellipse cx="332" cy="408" rx="360" ry="250" fill="url(#rglow)"/><polygon points="303.2,386.4 601.9,558.8 361.4,697.7 62.7,525.2" fill="#000" fill-opacity="0.5" filter="url(#rblur12)"/><polygon points="82.1,525.5 361.4,686.7 361.4,673.3 82.1,512.0" fill="url(#rg_sub_l)" stroke="#15301f" stroke-width="0.7" stroke-linejoin="round"/><polygon points="582.5,559.1 361.4,686.7 361.4,673.3 582.5,545.6" fill="url(#rg_sub_r)" stroke="#15301f" stroke-width="0.7" stroke-linejoin="round"/><polygon points="303.2,384.3 582.5,545.6 361.4,673.3 82.1,512.0" fill="url(#rg_sub_t)" stroke="#15301f" stroke-width="0.7" stroke-linejoin="round"/><line x1="82.1" y1="512.0" x2="361.4" y2="673.3" stroke="#ffffff" stroke-opacity="0.55" stroke-width="1.1"/><line x1="582.5" y1="545.6" x2="361.4" y2="673.3" stroke="#ffffff" stroke-opacity="0.4" stroke-width="1.1"/><line x1="301.3" y1="392.0" x2="569.0" y2="546.5" stroke="#c9a24a" stroke-width="0.8" stroke-opacity=".35"/><line x1="258.6" y1="416.6" x2="526.3" y2="571.2" stroke="#c9a24a" stroke-width="0.8" stroke-opacity=".35"/><line x1="215.9" y1="441.2" x2="483.6" y2="595.8" stroke="#c9a24a" stroke-width="0.8" stroke-opacity=".35"/><line x1="173.2" y1="465.9" x2="440.9" y2="620.4" stroke="#c9a24a" stroke-width="0.8" stroke-opacity=".35"/><line x1="130.5" y1="490.5" x2="398.3" y2="645.1" stroke="#c9a24a" stroke-width="0.8" stroke-opacity=".35"/><line x1="305.1" y1="392.0" x2="95.6" y2="512.9" stroke="#c9a24a" stroke-width="0.8" stroke-opacity=".35"/><line x1="355.6" y1="421.1" x2="146.1" y2="542.0" stroke="#c9a24a" stroke-width="0.8" stroke-opacity=".35"/><line x1="406.0" y1="450.2" x2="196.5" y2="571.2" stroke="#c9a24a" stroke-width="0.8" stroke-opacity=".35"/><line x1="456.5" y1="479.3" x2="246.9" y2="600.3" stroke="#c9a24a" stroke-width="0.8" stroke-opacity=".35"/><line x1="506.9" y1="508.4" x2="297.4" y2="629.4" stroke="#c9a24a" stroke-width="0.8" stroke-opacity=".35"/><line x1="557.3" y1="537.6" x2="347.8" y2="658.5" stroke="#c9a24a" stroke-width="0.8" stroke-opacity=".35"/><ellipse cx="139.3" cy="517.1" rx="5.5" ry="3.2" fill="url(#rgold)" stroke="#a96812" stroke-width="0.8" /><ellipse cx="176.1" cy="538.3" rx="5.5" ry="3.2" fill="url(#rgold)" stroke="#a96812" stroke-width="0.8" /><ellipse cx="213.0" cy="559.6" rx="5.5" ry="3.2" fill="url(#rgold)" stroke="#a96812" stroke-width="0.8" /><ellipse cx="249.9" cy="580.9" rx="5.5" ry="3.2" fill="url(#rgold)" stroke="#a96812" stroke-width="0.8" /><ellipse cx="286.7" cy="602.2" rx="5.5" ry="3.2" fill="url(#rgold)" stroke="#a96812" stroke-width="0.8" /><ellipse cx="323.6" cy="623.5" rx="5.5" ry="3.2" fill="url(#rgold)" stroke="#a96812" stroke-width="0.8" /><ellipse cx="527.3" cy="549.5" rx="5.5" ry="3.2" fill="url(#rgold)" stroke="#a96812" stroke-width="0.8" /><ellipse cx="490.4" cy="570.8" rx="5.5" ry="3.2" fill="url(#rgold)" stroke="#a96812" stroke-width="0.8" /><ellipse cx="453.5" cy="592.1" rx="5.5" ry="3.2" fill="url(#rgold)" stroke="#a96812" stroke-width="0.8" /><ellipse cx="416.7" cy="613.4" rx="5.5" ry="3.2" fill="url(#rgold)" stroke="#a96812" stroke-width="0.8" /><polygon points="303.2,399.8 539.9,536.4 361.4,639.5 124.7,502.8" fill="#000" fill-opacity="0.35" filter="url(#rblur8)"/><polygon points="113.1,503.1 361.4,646.4 361.4,617.3 113.1,473.9" fill="url(#rg_pic_l)" stroke="#212b37" stroke-width="0.7" stroke-linejoin="round"/><polygon points="551.5,536.7 361.4,646.4 361.4,617.3 551.5,507.5" fill="url(#rg_pic_r)" stroke="#212b37" stroke-width="0.7" stroke-linejoin="round"/><polygon points="303.2,364.2 551.5,507.5 361.4,617.3 113.1,473.9" fill="url(#rg_pic_t)" stroke="#212b37" stroke-width="0.7" stroke-linejoin="round"/><line x1="113.1" y1="473.9" x2="361.4" y2="617.3" stroke="#ffffff" stroke-opacity="0.55" stroke-width="1.1"/><line x1="551.5" y1="507.5" x2="361.4" y2="617.3" stroke="#ffffff" stroke-opacity="0.4" stroke-width="1.1"/><polygon points="337.1,543.9 379.8,568.6 350.7,585.4 308.0,560.7" fill="url(#rcopper)" stroke="#9a5a2a" stroke-width="1"/><line x1="337.1" y1="549.4" x2="370.1" y2="568.5" stroke="#3ddc97" stroke-width="2.2" /><line x1="332.3" y1="552.2" x2="365.3" y2="571.3" stroke="#3ddc97" stroke-width="2.2" /><line x1="327.4" y1="555.0" x2="360.4" y2="574.1" stroke="#3ddc97" stroke-width="2.2" /><line x1="322.6" y1="557.8" x2="355.6" y2="576.9" stroke="#3ddc97" stroke-width="2.2" /><line x1="317.7" y1="560.6" x2="350.7" y2="579.7" stroke="#3ddc97" stroke-width="2.2" /><path d="M322.6 552.2 L179.0 469.3" stroke="#7fd3ff" stroke-width="2" stroke-dasharray="6 4" fill="none"/><path d="M179.0 469.3 L195.5 471.0" stroke="#7fd3ff" stroke-width="1.6" fill="none"/><path d="M179.0 469.3 L182.0 478.9" stroke="#7fd3ff" stroke-width="1.6" fill="none"/><polygon points="303.2,375.2 532.1,507.3 361.4,605.9 132.5,473.7" fill="#000" fill-opacity="0.38" filter="url(#rblur12)"/><polygon points="336.2,488.5 297.4,510.9 297.4,488.5 336.2,466.1" fill="url(#rg_eic_w)" stroke="#1a1f27" stroke-width="0.7" stroke-linejoin="round"/><polygon points="336.2,488.5 390.5,519.9 390.5,497.5 336.2,466.1" fill="url(#rg_eic_w)" stroke="#1a1f27" stroke-width="0.7" stroke-linejoin="round"/><polygon points="113.1,424.7 361.4,568.0 361.4,545.6 113.1,402.3" fill="url(#rg_eic_l)" stroke="#1a1f27" stroke-width="0.7" stroke-linejoin="round"/><polygon points="551.5,458.3 361.4,568.0 361.4,545.6 551.5,435.9" fill="url(#rg_eic_r)" stroke="#1a1f27" stroke-width="0.7" stroke-linejoin="round"/><path d="M303.2,292.5 551.5,435.9 361.4,545.6 113.1,402.3Z M336.2,466.1 390.5,497.5 351.7,519.9 297.4,488.5Z" fill="url(#rg_eic_t)" fill-rule="evenodd" stroke="#1a1f27" stroke-width="0.7" stroke-linejoin="round"/><line x1="113.1" y1="402.3" x2="361.4" y2="545.6" stroke="#ffffff" stroke-opacity="0.55" stroke-width="1.1"/><line x1="551.5" y1="435.9" x2="361.4" y2="545.6" stroke="#ffffff" stroke-opacity="0.4" stroke-width="1.1"/><polygon points="303.2,303.5 532.1,435.6 361.4,534.2 132.5,402.0" fill="#000" fill-opacity="0.38" filter="url(#rblur12)"/><polygon points="113.1,353.0 361.4,496.3 361.4,467.2 113.1,323.9" fill="url(#rg_car_l)" stroke="#4d5869" stroke-width="0.7" stroke-linejoin="round"/><polygon points="551.5,386.6 361.4,496.3 361.4,467.2 551.5,357.5" fill="url(#rg_car_r)" stroke="#4d5869" stroke-width="0.7" stroke-linejoin="round"/><polygon points="303.2,214.1 551.5,357.5 361.4,467.2 113.1,323.9" fill="url(#rg_car_t)" stroke="#4d5869" stroke-width="0.7" stroke-linejoin="round"/><line x1="113.1" y1="323.9" x2="361.4" y2="467.2" stroke="#ffffff" stroke-opacity="0.55" stroke-width="1.1"/><line x1="551.5" y1="357.5" x2="361.4" y2="467.2" stroke="#ffffff" stroke-opacity="0.4" stroke-width="1.1"/><ellipse cx="312.4" cy="396.4" rx="8.9" ry="5.1" fill="url(#rlens)" stroke="#a96812" stroke-width="0.9" /><ellipse cx="312.4" cy="396.4" rx="4.4" ry="2.5" fill="#fff6dc" stroke="#a96812" stroke-width="0.6" /><ellipse cx="325.0" cy="403.7" rx="8.9" ry="5.1" fill="url(#rlens)" stroke="#a96812" stroke-width="0.9" /><ellipse cx="325.0" cy="403.7" rx="4.4" ry="2.5" fill="#fff6dc" stroke="#a96812" stroke-width="0.6" /><ellipse cx="337.6" cy="410.9" rx="8.9" ry="5.1" fill="url(#rlens)" stroke="#a96812" stroke-width="0.9" /><ellipse cx="337.6" cy="410.9" rx="4.4" ry="2.5" fill="#fff6dc" stroke="#a96812" stroke-width="0.6" /><ellipse cx="350.2" cy="418.2" rx="8.9" ry="5.1" fill="url(#rlens)" stroke="#a96812" stroke-width="0.9" /><ellipse cx="350.2" cy="418.2" rx="4.4" ry="2.5" fill="#fff6dc" stroke="#a96812" stroke-width="0.6" /><ellipse cx="362.9" cy="425.5" rx="8.9" ry="5.1" fill="url(#rlens)" stroke="#a96812" stroke-width="0.9" /><ellipse cx="362.9" cy="425.5" rx="4.4" ry="2.5" fill="#fff6dc" stroke="#a96812" stroke-width="0.6" /><ellipse cx="375.5" cy="432.8" rx="8.9" ry="5.1" fill="url(#rlens)" stroke="#a96812" stroke-width="0.9" /><ellipse cx="375.5" cy="432.8" rx="4.4" ry="2.5" fill="#fff6dc" stroke="#a96812" stroke-width="0.6" /><polygon points="440.9,286.7 565.1,358.4 376.9,467.0 252.8,395.3" fill="#000" fill-opacity="0.35" filter="url(#rblur8)"/><polygon points="440.9,311.5 295.4,395.5 295.4,377.6 440.9,293.6" fill="url(#rg_rec_w)" stroke="#424951" stroke-width="0.7" stroke-linejoin="round"/><polygon points="440.9,311.5 522.4,358.6 522.4,340.7 440.9,293.6" fill="url(#rg_rec_w)" stroke="#424951" stroke-width="0.7" stroke-linejoin="round"/><polygon points="248.9,395.5 376.9,469.5 376.9,451.5 248.9,377.6" fill="url(#rg_rec_l)" stroke="#424951" stroke-width="0.7" stroke-linejoin="round"/><polygon points="569.0,358.6 376.9,469.5 376.9,451.5 569.0,340.7" fill="url(#rg_rec_r)" stroke="#424951" stroke-width="0.7" stroke-linejoin="round"/><path d="M440.9,266.7 569.0,340.7 376.9,451.5 248.9,377.6Z M440.9,293.6 522.4,340.7 376.9,424.7 295.4,377.6Z" fill="url(#rg_rec_t)" fill-rule="evenodd" stroke="#424951" stroke-width="0.7" stroke-linejoin="round"/><line x1="248.9" y1="377.6" x2="376.9" y2="451.5" stroke="#ffffff" stroke-opacity="0.55" stroke-width="1.1"/><line x1="569.0" y1="340.7" x2="376.9" y2="451.5" stroke="#ffffff" stroke-opacity="0.4" stroke-width="1.1"/><ellipse cx="440.9" cy="288.0" rx="4.9" ry="2.9" fill="#2d3340" stroke="#1b2029" stroke-width="0.8" /><ellipse cx="532.1" cy="340.7" rx="4.9" ry="2.9" fill="#2d3340" stroke="#1b2029" stroke-width="0.8" /><ellipse cx="331.3" cy="403.9" rx="4.9" ry="2.9" fill="#2d3340" stroke="#1b2029" stroke-width="0.8" /><polygon points="440.9,284.4 537.9,340.4 376.9,433.4 279.9,377.4" fill="#000" fill-opacity="0.4" filter="url(#rblur8)"/><ellipse cx="440.9" cy="257.8" rx="7.1" ry="4.1" fill="url(#rball)" stroke="#8a6a1c" stroke-width="0.8" /><ellipse cx="532.1" cy="310.4" rx="7.1" ry="4.1" fill="url(#rball)" stroke="#8a6a1c" stroke-width="0.8" /><ellipse cx="331.3" cy="373.7" rx="7.1" ry="4.1" fill="url(#rball)" stroke="#8a6a1c" stroke-width="0.8" /><polygon points="323.6,319.9 273.1,349.1 273.1,340.1 323.6,311.0" fill="url(#rg_cpl_w)" stroke="#1b1c1f" stroke-width="0.7" stroke-linejoin="round"/><polygon points="323.6,319.9 414.7,372.6 414.7,363.6 323.6,311.0" fill="url(#rg_cpl_w)" stroke="#1b1c1f" stroke-width="0.7" stroke-linejoin="round"/><polygon points="268.3,341.8 376.9,404.5 376.9,395.5 268.3,332.8" fill="url(#rg_cpl_l)" stroke="#1b1c1f" stroke-width="0.7" stroke-linejoin="round"/><polygon points="549.6,304.8 376.9,404.5 376.9,395.5 549.6,295.9" fill="url(#rg_cpl_r)" stroke="#1b1c1f" stroke-width="0.7" stroke-linejoin="round"/><path d="M440.9,233.1 549.6,295.9 376.9,395.5 268.3,332.8Z M323.6,311.0 414.7,363.6 364.3,392.7 273.1,340.1Z" fill="url(#rg_cpl_t)" fill-rule="evenodd" stroke="#1b1c1f" stroke-width="0.7" stroke-linejoin="round"/><line x1="268.3" y1="332.8" x2="376.9" y2="395.5" stroke="#ffffff" stroke-opacity="0.55" stroke-width="1.1"/><line x1="549.6" y1="295.9" x2="376.9" y2="395.5" stroke="#ffffff" stroke-opacity="0.4" stroke-width="1.1"/><ellipse cx="440.9" cy="243.2" rx="4.4" ry="2.5" fill="url(#rball)" stroke="#8a6a1c" stroke-width="0.7" /><ellipse cx="532.1" cy="295.9" rx="4.4" ry="2.5" fill="url(#rball)" stroke="#8a6a1c" stroke-width="0.7" /><ellipse cx="331.3" cy="359.1" rx="4.4" ry="2.5" fill="url(#rball)" stroke="#8a6a1c" stroke-width="0.7" /><polygon points="321.6,318.6 401.2,364.5 366.2,384.7 286.7,338.8" fill="#000" fill-opacity="0.35" filter="url(#rblur6)"/><polygon points="282.8,323.3 366.2,371.5 366.2,365.9 282.8,317.7" fill="url(#rg_pmla_l)" fill-opacity="0.82" stroke="#2081ac" stroke-width="0.7" stroke-linejoin="round"/><polygon points="405.0,349.1 366.2,371.5 366.2,365.9 405.0,343.5" fill="url(#rg_pmla_r)" fill-opacity="0.82" stroke="#2081ac" stroke-width="0.7" stroke-linejoin="round"/><polygon points="321.6,295.3 405.0,343.5 366.2,365.9 282.8,317.7" fill="url(#rg_pmla_t)" fill-opacity="0.82" stroke="#2081ac" stroke-width="0.7" stroke-linejoin="round"/><line x1="282.8" y1="317.7" x2="366.2" y2="365.9" stroke="#ffffff" stroke-opacity="0.55" stroke-width="1.1"/><line x1="405.0" y1="343.5" x2="366.2" y2="365.9" stroke="#ffffff" stroke-opacity="0.4" stroke-width="1.1"/><ellipse cx="312.4" cy="312.4" rx="6.2" ry="3.6" fill="url(#rlens)" stroke="#a96812" stroke-width="0.8" /><ellipse cx="325.0" cy="319.7" rx="6.2" ry="3.6" fill="url(#rlens)" stroke="#a96812" stroke-width="0.8" /><ellipse cx="337.6" cy="326.9" rx="6.2" ry="3.6" fill="url(#rlens)" stroke="#a96812" stroke-width="0.8" /><ellipse cx="350.2" cy="334.2" rx="6.2" ry="3.6" fill="url(#rlens)" stroke="#a96812" stroke-width="0.8" /><ellipse cx="362.9" cy="341.5" rx="6.2" ry="3.6" fill="url(#rlens)" stroke="#a96812" stroke-width="0.8" /><ellipse cx="375.5" cy="348.8" rx="6.2" ry="3.6" fill="url(#rlens)" stroke="#a96812" stroke-width="0.8" /><polygon points="441.9,230.1 517.6,273.8 372.1,357.8 296.4,314.1" fill="#000" fill-opacity="0.38" filter="url(#rblur8)"/><polygon points="288.7,299.8 372.1,347.9 372.1,316.6 288.7,268.4" fill="url(#rg_fa_l)" fill-opacity="0.82" stroke="#277cb0" stroke-width="0.7" stroke-linejoin="round"/><polygon points="525.3,259.5 372.1,347.9 372.1,316.6 525.3,228.1" fill="url(#rg_fa_r)" fill-opacity="0.82" stroke="#277cb0" stroke-width="0.7" stroke-linejoin="round"/><polygon points="441.9,179.9 525.3,228.1 372.1,316.6 288.7,268.4" fill="url(#rg_fa_t)" fill-opacity="0.82" stroke="#277cb0" stroke-width="0.7" stroke-linejoin="round"/><line x1="288.7" y1="268.4" x2="372.1" y2="316.6" stroke="#ffffff" stroke-opacity="0.55" stroke-width="1.1"/><line x1="525.3" y1="228.1" x2="372.1" y2="316.6" stroke="#ffffff" stroke-opacity="0.4" stroke-width="1.1"/><path d="M295.0 272.1 L298.8 282.1 L302.7 276.5" fill="none" stroke="#3f3f4c" stroke-width="1"/><circle cx="298.8" cy="277.9" r="2.9" fill="#dceaf1" stroke="#7fa5b8" stroke-width="1"/><path d="M307.6 279.3 L311.4 289.4 L315.3 283.8" fill="none" stroke="#3f3f4c" stroke-width="1"/><circle cx="311.4" cy="285.2" r="2.9" fill="#dceaf1" stroke="#7fa5b8" stroke-width="1"/><path d="M320.2 286.6 L324.1 296.7 L327.9 291.1" fill="none" stroke="#3f3f4c" stroke-width="1"/><circle cx="324.1" cy="292.4" r="2.9" fill="#dceaf1" stroke="#7fa5b8" stroke-width="1"/><path d="M332.8 293.9 L336.7 304.0 L340.5 298.4" fill="none" stroke="#3f3f4c" stroke-width="1"/><circle cx="336.7" cy="299.7" r="2.9" fill="#dceaf1" stroke="#7fa5b8" stroke-width="1"/><path d="M345.4 301.2 L349.3 311.3 L353.2 305.7" fill="none" stroke="#3f3f4c" stroke-width="1"/><circle cx="349.3" cy="307.0" r="2.9" fill="#dceaf1" stroke="#7fa5b8" stroke-width="1"/><path d="M358.0 308.5 L361.9 318.5 L365.8 312.9" fill="none" stroke="#3f3f4c" stroke-width="1"/><circle cx="361.9" cy="314.3" r="2.9" fill="#dceaf1" stroke="#7fa5b8" stroke-width="1"/><line x1="448.6" y1="183.7" x2="402.0" y2="210.6" stroke="#8b94a3" stroke-width="0.9" /><line x1="455.6" y1="187.7" x2="409.0" y2="214.6" stroke="#8b94a3" stroke-width="0.9" /><line x1="461.2" y1="191.0" x2="414.6" y2="217.9" stroke="#8b94a3" stroke-width="0.9" /><line x1="468.2" y1="195.0" x2="421.6" y2="221.9" stroke="#8b94a3" stroke-width="0.9" /><line x1="473.8" y1="198.3" x2="427.3" y2="225.1" stroke="#8b94a3" stroke-width="0.9" /><line x1="480.8" y1="202.3" x2="434.2" y2="229.2" stroke="#8b94a3" stroke-width="0.9" /><line x1="486.4" y1="205.5" x2="439.9" y2="232.4" stroke="#8b94a3" stroke-width="0.9" /><line x1="493.4" y1="209.6" x2="446.8" y2="236.4" stroke="#8b94a3" stroke-width="0.9" /><line x1="499.0" y1="212.8" x2="452.5" y2="239.7" stroke="#8b94a3" stroke-width="0.9" /><line x1="506.0" y1="216.8" x2="459.5" y2="243.7" stroke="#8b94a3" stroke-width="0.9" /><line x1="511.6" y1="220.1" x2="465.1" y2="247.0" stroke="#8b94a3" stroke-width="0.9" /><line x1="518.6" y1="224.1" x2="472.1" y2="251.0" stroke="#8b94a3" stroke-width="0.9" /><line x1="403.6" y1="212.7" x2="556.8" y2="124.2" stroke="#24394d" stroke-width="10.080000000000002" stroke-linecap="round"/><line x1="403.6" y1="212.7" x2="556.8" y2="124.2" stroke="#6f98b0" stroke-width="6.944000000000001" stroke-linecap="round"/><line x1="403.6" y1="212.7" x2="556.8" y2="124.2" stroke="#e3f3fb" stroke-width="2.0160000000000005" stroke-linecap="round" stroke-opacity=".9"/><line x1="416.2" y1="220.0" x2="569.5" y2="131.5" stroke="#24394d" stroke-width="10.080000000000002" stroke-linecap="round"/><line x1="416.2" y1="220.0" x2="569.5" y2="131.5" stroke="#6f98b0" stroke-width="6.944000000000001" stroke-linecap="round"/><line x1="416.2" y1="220.0" x2="569.5" y2="131.5" stroke="#e3f3fb" stroke-width="2.0160000000000005" stroke-linecap="round" stroke-opacity=".9"/><line x1="428.8" y1="227.3" x2="582.1" y2="138.8" stroke="#24394d" stroke-width="10.080000000000002" stroke-linecap="round"/><line x1="428.8" y1="227.3" x2="582.1" y2="138.8" stroke="#6f98b0" stroke-width="6.944000000000001" stroke-linecap="round"/><line x1="428.8" y1="227.3" x2="582.1" y2="138.8" stroke="#e3f3fb" stroke-width="2.0160000000000005" stroke-linecap="round" stroke-opacity=".9"/><line x1="441.4" y1="234.5" x2="594.7" y2="146.1" stroke="#24394d" stroke-width="10.080000000000002" stroke-linecap="round"/><line x1="441.4" y1="234.5" x2="594.7" y2="146.1" stroke="#6f98b0" stroke-width="6.944000000000001" stroke-linecap="round"/><line x1="441.4" y1="234.5" x2="594.7" y2="146.1" stroke="#e3f3fb" stroke-width="2.0160000000000005" stroke-linecap="round" stroke-opacity=".9"/><line x1="454.0" y1="241.8" x2="607.3" y2="153.3" stroke="#24394d" stroke-width="10.080000000000002" stroke-linecap="round"/><line x1="454.0" y1="241.8" x2="607.3" y2="153.3" stroke="#6f98b0" stroke-width="6.944000000000001" stroke-linecap="round"/><line x1="454.0" y1="241.8" x2="607.3" y2="153.3" stroke="#e3f3fb" stroke-width="2.0160000000000005" stroke-linecap="round" stroke-opacity=".9"/><line x1="466.6" y1="249.1" x2="619.9" y2="160.6" stroke="#24394d" stroke-width="10.080000000000002" stroke-linecap="round"/><line x1="466.6" y1="249.1" x2="619.9" y2="160.6" stroke="#6f98b0" stroke-width="6.944000000000001" stroke-linecap="round"/><line x1="466.6" y1="249.1" x2="619.9" y2="160.6" stroke="#e3f3fb" stroke-width="2.0160000000000005" stroke-linecap="round" stroke-opacity=".9"/><polygon points="478.8,255.0 385.6,308.7 410.9,265.1 478.8,225.9" fill="url(#rg_lid_r)" fill-opacity="0.82" stroke="#2e74a3" stroke-width="0.7" stroke-linejoin="round"/><polygon points="395.3,177.7 478.8,225.9 410.9,265.1 327.4,216.9" fill="url(#rg_lid_t)" fill-opacity="0.82" stroke="#2e74a3" stroke-width="0.7" stroke-linejoin="round"/><polygon points="327.4,216.9 410.9,265.1 385.6,308.7 302.2,260.6" fill="url(#rg_mirror)" stroke="#8a6a1c" stroke-width=".7" stroke-linejoin="round"/><line x1="327.4" y1="216.9" x2="410.9" y2="265.1" stroke="#ffffff" stroke-opacity="0.7" stroke-width="1.1"/><line x1="302.2" y1="260.0" x2="385.6" y2="308.2" stroke="#a96812" stroke-width="1.6" stroke-dasharray="3 2"/><polygon points="542.8,129.5 630.1,179.9 630.1,159.8 542.8,109.4" fill="url(#rg_mt_l)" stroke="#897443" stroke-width="0.7" stroke-linejoin="round"/><polygon points="659.2,163.1 630.1,179.9 630.1,159.8 659.2,143.0" fill="url(#rg_mt_r)" stroke="#897443" stroke-width="0.7" stroke-linejoin="round"/><polygon points="571.9,92.6 659.2,143.0 630.1,159.8 542.8,109.4" fill="url(#rg_mt_t)" stroke="#897443" stroke-width="0.7" stroke-linejoin="round"/><line x1="542.8" y1="109.4" x2="630.1" y2="159.8" stroke="#ffffff" stroke-opacity="0.55" stroke-width="1.1"/><line x1="659.2" y1="143.0" x2="630.1" y2="159.8" stroke="#ffffff" stroke-opacity="0.4" stroke-width="1.1"/><polygon points="581.6,115.0 649.5,154.2 649.5,140.7 581.6,101.5" fill="url(#rg_boot_l)" stroke="#1a1c20" stroke-width="0.7" stroke-linejoin="round"/><polygon points="676.6,138.5 649.5,154.2 649.5,140.7 676.6,125.1" fill="url(#rg_boot_r)" stroke="#1a1c20" stroke-width="0.7" stroke-linejoin="round"/><polygon points="608.7,85.9 676.6,125.1 649.5,140.7 581.6,101.5" fill="url(#rg_boot_t)" stroke="#1a1c20" stroke-width="0.7" stroke-linejoin="round"/><line x1="581.6" y1="101.5" x2="649.5" y2="140.7" stroke="#ffffff" stroke-opacity="0.55" stroke-width="1.1"/><line x1="676.6" y1="125.1" x2="649.5" y2="140.7" stroke="#ffffff" stroke-opacity="0.4" stroke-width="1.1"/><polygon points="613.6,98.7 669.8,131.2 669.8,126.7 613.6,94.3" fill="url(#rg_rib_l)" stroke="#746013" stroke-width="0.7" stroke-linejoin="round"/><polygon points="733.9,94.3 669.8,131.2 669.8,126.7 733.9,89.8" fill="url(#rg_rib_r)" stroke="#746013" stroke-width="0.7" stroke-linejoin="round"/><polygon points="677.6,57.3 733.9,89.8 669.8,126.7 613.6,94.3" fill="url(#rg_rib_t)" stroke="#746013" stroke-width="0.7" stroke-linejoin="round"/><path d="M580.1 139.9 L337.6 279.9 L337.6 561.0" fill="none" stroke="#4fd1ff" stroke-width="7" stroke-opacity=".28" filter="url(#rblur4)"/><path id="rca_beam" d="M580.1 139.9 L337.6 279.9 L337.6 561.0" fill="none" stroke="#4fd1ff" stroke-width="2.4" stroke-dasharray="7 4"/><path d="M337.6 575.6 L337.6 555.4" stroke="#ff6b5c" stroke-width="1.6" marker-end="url(#rarr)"/><circle r="3.8" fill="#ff6b5c"><animateMotion dur="4s" repeatCount="indefinite"><mpath href="#rca_beam"/></animateMotion></circle>
  <text x="26" y="34" font-size="15.5" letter-spacing="2" fill="#9aa6ba" font-weight="700">台積電 COUPE-GC 光引擎與 FAU 的耦光結構</text><text x="874" y="678" text-anchor="end" font-size="15" fill="#9aa6ba">等角分解示意：零件照實際順序、不照比例</text>
  <path d="M642 208 L651.4 157.5" stroke="#8d98aa" stroke-width="1" fill="none"/><circle cx="651.4" cy="157.5" r="2.2" fill="#8d98aa"/><text x="650" y="212" font-size="12.5" fill="#d7dde8" font-weight="600">MT 接頭（多芯一次插）</text><path d="M642 246 L445.8 260.6" stroke="#8d98aa" stroke-width="1" fill="none"/><circle cx="445.8" cy="260.6" r="2.2" fill="#8d98aa"/><text x="650" y="250" font-size="13" fill="#ffffff" font-weight="800">FAU（FA＋反射面＋PMLA）</text><path d="M642 292 L391.5 351.3" stroke="#8d98aa" stroke-width="1" fill="none"/><circle cx="391.5" cy="351.3" r="2.2" fill="#8d98aa"/><text x="650" y="296" font-size="12.5" fill="#d7dde8" font-weight="600">PMLA 平面微透鏡陣列</text><path d="M642 326 L510.8 318.3" stroke="#8d98aa" stroke-width="1" fill="none"/><circle cx="510.8" cy="318.3" r="2.2" fill="#8d98aa"/><text x="650" y="330" font-size="12.5" fill="#d7dde8" font-weight="600">Carrier 定位載板（3 珠 3 孔）</text><path d="M642 360 L539.9 357.5" stroke="#8d98aa" stroke-width="1" fill="none"/><circle cx="539.9" cy="357.5" r="2.2" fill="#8d98aa"/><text x="650" y="364" font-size="12.5" fill="#d7dde8" font-weight="600">Receptacle 插座（固定在晶片上）</text><path d="M642 426 L522.4 388.8" stroke="#8d98aa" stroke-width="1" fill="none"/><circle cx="522.4" cy="388.8" r="2.2" fill="#8d98aa"/><text x="650" y="430" font-size="12.5" fill="#d7dde8" font-weight="600">Si Carrier 矽載板（頂面有微透鏡）</text><path d="M642 506 L522.4 463.9" stroke="#8d98aa" stroke-width="1" fill="none"/><circle cx="522.4" cy="463.9" r="2.2" fill="#8d98aa"/><text x="650" y="510" font-size="12.5" fill="#d7dde8" font-weight="600">EIC 電晶片（留開口讓光過）</text><path d="M642 586 L522.4 538.9" stroke="#8d98aa" stroke-width="1" fill="none"/><circle cx="522.4" cy="538.9" r="2.2" fill="#8d98aa"/><text x="650" y="590" font-size="12.5" fill="#d7dde8" font-weight="600">PIC 矽光子晶片（光柵在上、銅反射層在下）</text><text x="74.1" y="522.7" font-size="12.5" fill="#d7dde8" text-anchor="end" font-weight="600">封裝基板</text><text x="146.9" y="447.4" font-size="12.5" fill="#d7dde8" text-anchor="end" font-weight="600">光往晶片內的波導走</text>
</svg>